<svg width="24" height="24" viewBox="0 0 24 24" fill="none" xmlns="http://www.w3.org/2000/svg">
<g clip-path="url(#clip0_68_1726)">
<path d="M13.4157 9.11719H8.10094C7.95539 9.11719 7.83727 8.98148 7.83727 8.83594C7.83727 8.69039 7.95539 8.55469 8.10094 8.55469H13.0984C12.9777 8.36719 12.8723 8.03906 12.783 7.85156H8.10094C7.95539 7.85156 7.83727 7.71689 7.83727 7.57031C7.83727 7.42477 7.95539 7.28906 8.10094 7.28906H12.6206C12.5044 6.86719 12.4416 6.37012 12.4416 5.88117C12.4416 4.98787 12.6393 4.14844 13.0064 3.39844H3.15553C2.721 3.39844 2.41406 3.76523 2.41406 4.19986V19.3359H13.2833C13.5524 19.3359 13.8104 19.419 14.0123 19.595C14.0369 19.6155 14.0748 19.6436 14.1281 19.7038L14.1488 19.7142C14.314 19.9125 14.4141 20.1616 14.4141 20.422V21.5887C14.4141 22.2719 14.8359 23.2475 15.3984 23.2475V23.2342C14.5078 23.221 13.8047 22.4905 13.8047 21.5887V20.422C13.8047 20.3056 13.743 20.1984 13.6747 20.1163C13.6747 20.1163 13.629 20.078 13.6141 20.0667C13.5297 19.9903 13.4065 19.9453 13.2833 19.9453H1.20164C0.935859 19.9453 0.726562 20.1562 0.726562 20.422V21.5556C0.726562 22.4839 1.473 23.2266 2.40136 23.2266H15.3857C15.8076 23.2266 16.1471 23.0999 16.4266 22.8804C16.8116 22.5798 17.0859 22.1157 17.0859 21.5884V11.5214C15.5391 11.2262 14.2501 10.3828 13.4157 9.11719ZM5.11102 7.02305C5.40014 7.02305 5.6663 7.11909 5.88169 7.2795L4.93364 8.22736L4.76273 8.02514C4.65928 7.90284 4.47609 7.88752 4.35403 7.99097C4.23164 8.09442 4.21641 8.27742 4.31981 8.39977L4.69444 8.84269C4.7467 8.90466 4.82269 8.94173 4.90383 8.94516C4.90786 8.94534 4.91189 8.94544 4.91592 8.94544C4.99266 8.94544 5.06644 8.91506 5.12091 8.86055L6.25917 7.72237C6.35147 7.90045 6.40448 8.10216 6.40448 8.31656C6.40448 9.03084 5.82534 9.61003 5.11102 9.61003C4.39664 9.61003 3.81764 9.03089 3.81764 8.31656C3.81764 7.60214 4.39664 7.02305 5.11102 7.02305ZM5.11102 11.139C5.40014 11.139 5.6662 11.235 5.88169 11.3954L4.93364 12.3433L4.76273 12.1411C4.65928 12.0188 4.47609 12.0035 4.35403 12.1069C4.23164 12.2103 4.21641 12.3934 4.31981 12.5157L4.69444 12.9586C4.7467 13.0205 4.82269 13.0577 4.90383 13.0611C4.90786 13.0613 4.91189 13.0614 4.91592 13.0614C4.99266 13.0614 5.06644 13.0309 5.12091 12.9764L6.25917 11.8383C6.35147 12.0164 6.40448 12.2181 6.40448 12.4324C6.40448 13.1468 5.82534 13.7259 5.11102 13.7259C4.39664 13.7259 3.81764 13.1468 3.81764 12.4324C3.81764 11.718 4.39664 11.139 5.11102 11.139ZM5.11102 17.8417C4.39664 17.8417 3.81764 17.2627 3.81764 16.5484C3.81764 15.834 4.39664 15.2549 5.11102 15.2549C5.40014 15.2549 5.6662 15.351 5.88169 15.5113L4.93364 16.4592L4.76273 16.257C4.65928 16.1347 4.47609 16.1194 4.35403 16.2228C4.23164 16.3262 4.21641 16.5092 4.31981 16.6315L4.69444 17.0745C4.7467 17.1364 4.82269 17.1735 4.90383 17.177C4.90786 17.1771 4.91189 17.1772 4.91592 17.1772C4.99266 17.1772 5.06644 17.1468 5.12091 17.0923L6.25917 15.9542C6.35147 16.1322 6.40448 16.334 6.40448 16.5484C6.40448 17.2627 5.8253 17.8417 5.11102 17.8417ZM14.6456 17.3203H8.1015C7.95586 17.3203 7.83783 17.2081 7.83783 17.0625C7.83783 16.9169 7.95586 16.8047 8.1015 16.8047H14.6456C14.7911 16.8047 14.9093 16.9169 14.9093 17.0625C14.9093 17.2081 14.7912 17.3203 14.6456 17.3203ZM14.6456 16.0547H8.1015C7.95586 16.0547 7.83783 15.9425 7.83783 15.7969C7.83783 15.6512 7.95586 15.5391 8.1015 15.5391H14.6456C14.7911 15.5391 14.9093 15.6512 14.9093 15.7969C14.9093 15.9425 14.7912 16.0547 14.6456 16.0547ZM14.6456 13.1953H8.1015C7.95586 13.1953 7.83783 13.0831 7.83783 12.9375C7.83783 12.7919 7.95586 12.6797 8.1015 12.6797H14.6456C14.7911 12.6797 14.9093 12.7919 14.9093 12.9375C14.9093 13.0831 14.7912 13.1953 14.6456 13.1953ZM14.9093 11.6719C14.9093 11.8175 14.7911 11.9297 14.6456 11.9297H8.1015C7.95586 11.9297 7.83783 11.8175 7.83783 11.6719C7.83783 11.5262 7.95586 11.4141 8.1015 11.4141H14.6456C14.7912 11.4141 14.9093 11.5262 14.9093 11.6719Z" fill="black"/>
<path d="M18.1533 0.766785C15.315 0.766785 13.0137 3.06816 13.0137 5.90738C13.0137 8.74552 15.315 11.0468 18.1533 11.0468C20.9924 11.0468 23.2927 8.74552 23.2927 5.90738C23.2927 3.06816 20.9924 0.766785 18.1533 0.766785ZM18.4453 6.59925C18.4453 6.60347 18.4443 6.60877 18.4432 6.61289C18.4389 6.72047 18.374 6.8176 18.2761 6.86293C18.2371 6.88078 18.1946 6.88932 18.1535 6.88932C18.0901 6.88932 18.0268 6.86827 17.9751 6.82707C17.972 6.82496 17.9687 6.82177 17.9655 6.81975L16.45 5.53088L16.4478 5.5298L16.3265 5.42644C16.2041 5.32308 16.1894 5.13961 16.2938 5.0183C16.3972 4.896 16.5436 4.88124 16.665 4.9846L17.7891 5.97183V2.94793C17.7891 2.78761 17.9568 2.65786 18.1172 2.65786C18.2774 2.65786 18.4453 2.78761 18.4453 2.94793V6.59925Z" fill="black"/>
</g>
<defs>
<clipPath id="clip0_68_1726">
<rect width="24" height="24" fill="white"/>
</clipPath>
</defs>
</svg>
