<svg width="23" height="21" viewBox="0 0 23 21" fill="none" xmlns="http://www.w3.org/2000/svg">
<path d="M22.847 4.016V2.008C22.8465 1.47561 22.6347 0.965173 22.2583 0.588715C21.8818 0.212256 21.3714 0.00052948 20.839 0H4.685C4.15261 0.00052948 3.64217 0.212256 3.26571 0.588715C2.88926 0.965173 2.67753 1.47561 2.677 2.008V4.016L4.114 5.355H4.452L2.677 6.693H2.008C1.47578 6.69353 0.965497 6.90512 0.589067 7.28136C0.212637 7.6576 0.000794095 8.16778 0 8.7L0 18.071C0.000264694 18.6036 0.211874 19.1143 0.588361 19.4909C0.964848 19.8676 1.47543 20.0795 2.008 20.08H18.161C18.6934 20.0795 19.2038 19.8677 19.5803 19.4913C19.9567 19.1148 20.1685 18.6044 20.169 18.072V13.387L21.508 12.2V7.36C21.5067 6.82813 21.2946 6.31846 20.9182 5.94265C20.5419 5.56684 20.0319 5.35553 19.5 5.355H20.86L22.847 4.016Z" fill="black"/>
<path d="M3.34577 10.709H7.40677C7.58433 10.709 7.75462 10.6384 7.88018 10.5129C8.00573 10.3873 8.07627 10.217 8.07627 10.0395C8.07627 9.86192 8.00573 9.69163 7.88018 9.56608C7.75462 9.44052 7.58433 9.36998 7.40677 9.36998H3.34577C3.16821 9.36998 2.99792 9.44052 2.87236 9.56608C2.7468 9.69163 2.67627 9.86192 2.67627 10.0395C2.67627 10.217 2.7468 10.3873 2.87236 10.5129C2.99792 10.6384 3.16821 10.709 3.34577 10.709ZM10.0838 12.048H3.34577C3.16821 12.048 2.99792 12.1185 2.87236 12.2441C2.7468 12.3696 2.67627 12.5399 2.67627 12.7175C2.67627 12.8951 2.7468 13.0653 2.87236 13.1909C2.99792 13.3165 3.16821 13.387 3.34577 13.387H10.0838C10.2613 13.387 10.4316 13.3165 10.5572 13.1909C10.6827 13.0653 10.7533 12.8951 10.7533 12.7175C10.7533 12.5399 10.6827 12.3696 10.5572 12.2441C10.4316 12.1185 10.2613 12.048 10.0838 12.048ZM2.67677 4.01598V6.69299H18.1608C18.6932 6.69352 19.2036 6.90524 19.5801 7.2817C19.9565 7.65816 20.1682 8.16859 20.1688 8.70098V13.386H20.8378C21.3702 13.3854 21.8806 13.1737 22.2571 12.7973C22.6335 12.4208 22.8452 11.9104 22.8458 11.378V4.01598H2.67677Z" fill="#DEDEDE"/>
</svg>
