<svg width="24" height="24" viewBox="0 0 24 24" fill="none" xmlns="http://www.w3.org/2000/svg">
<path d="M12 1.875C9.91142 1.875 7.90838 2.70469 6.43153 4.18153C4.95468 5.65838 4.125 7.66142 4.125 9.75C4.125 16.125 12 22.125 12 22.125C12 22.125 19.875 16.125 19.875 9.75C19.875 7.66142 19.0453 5.65838 17.5685 4.18153C16.0916 2.70469 14.0886 1.875 12 1.875ZM14.625 9.375V13.125H12.75V11.25C12.75 11.0511 12.671 10.8603 12.5303 10.7197C12.3897 10.579 12.1989 10.5 12 10.5C11.8011 10.5 11.6103 10.579 11.4697 10.7197C11.329 10.8603 11.25 11.0511 11.25 11.25V13.125H9.375V9.375H7.875L12 6L16.125 9.375H14.625Z" fill="black"/>
</svg>
