<svg width="21" height="21" viewBox="0 0 21 21" fill="none" xmlns="http://www.w3.org/2000/svg">
<g clip-path="url(#clip0_66_1643)">
<path d="M5.68947 5.61914H5.42615L4.93408 8.08008H6.18153L5.68947 5.61914Z" fill="black"/>
<path d="M15.6421 10.541C15.9077 11.2546 16.2611 11.8323 16.6521 12.3238C17.0432 11.8323 17.4375 11.2546 17.7032 10.541H15.6421Z" fill="black"/>
<path d="M19.1544 3.73242H11.5139L13.1071 16.5161C13.1352 17.039 12.9923 17.5313 12.6511 17.9167L9.95312 21H19.1544C20.1722 21 21.0002 20.1721 21.0002 19.1543V5.61914C21.0002 4.60138 20.1722 3.73242 19.1544 3.73242ZM19.1544 10.541H18.9901C18.6401 11.6641 18.0849 12.543 17.508 13.2358C17.9599 13.649 18.4432 13.988 18.9237 14.3676C19.1887 14.5797 19.232 14.9666 19.0193 15.2322C18.8075 15.4973 18.4191 15.5403 18.1547 15.3277C17.6326 14.9156 17.1425 14.5707 16.6525 14.121C16.1624 14.5707 15.7134 14.9156 15.1913 15.3277C14.9269 15.5403 14.5385 15.4973 14.3267 15.2322C14.114 14.9666 14.1573 14.5797 14.4223 14.3676C14.9028 13.988 15.345 13.649 15.797 13.2358C15.2201 12.543 14.7059 11.6642 14.3559 10.541H14.1916C13.8515 10.541 13.5763 10.2658 13.5763 9.92578C13.5763 9.58572 13.8515 9.31055 14.1916 9.31055H16.0373V8.69531C16.0373 8.35525 16.3124 8.08008 16.6525 8.08008C16.9926 8.08008 17.2677 8.35525 17.2677 8.69531V9.31055H19.1544C19.4945 9.31055 19.7697 9.58572 19.7697 9.92578C19.7697 10.2658 19.4945 10.541 19.1544 10.541Z" fill="black"/>
<path d="M10.0145 1.61679C9.89978 0.695133 9.11211 0 8.18327 0H1.8457C0.827942 0 0 0.827941 0 1.8457V15.4629C0 16.4807 0.827942 17.3086 1.8457 17.3086C5.52357 17.3086 8.16937 17.3086 11.548 17.3086C11.7275 17.1034 11.8779 16.975 11.8843 16.7072C11.8858 16.64 10.0229 1.6834 10.0145 1.61679ZM7.54458 11.7595C7.21834 11.8266 6.88788 11.6148 6.82061 11.277L6.42739 9.31055H4.68788L4.29466 11.277C4.22859 11.6098 3.90772 11.8285 3.5707 11.7595C3.23786 11.6928 3.02154 11.369 3.08823 11.0355L4.31866 4.88316C4.37633 4.59596 4.6287 4.38867 4.92188 4.38867H6.19336C6.48654 4.38867 6.73891 4.59596 6.79658 4.88316L8.02705 11.0355C8.09374 11.369 7.87746 11.6928 7.54458 11.7595Z" fill="black"/>
<path d="M7.18848 18.5391L7.29405 19.3832C7.36443 19.9485 7.74005 20.525 8.35791 20.8128C9.52391 19.5293 8.81848 20.3058 10.4234 18.5391H7.18848Z" fill="black"/>
</g>
<defs>
<clipPath id="clip0_66_1643">
<rect width="21" height="21" fill="white"/>
</clipPath>
</defs>
</svg>
