<svg width="24" height="24" viewBox="0 0 24 24" fill="none" xmlns="http://www.w3.org/2000/svg">
<g clip-path="url(#clip0_66_1683)">
<path d="M10.9093 3.72458L10.9093 16.3635C10.9093 16.966 11.3977 17.4544 12.0002 17.4544C12.6026 17.4544 13.0911 16.966 13.0911 16.3635L13.0911 3.72458L14.5015 5.13506C14.9274 5.56109 15.6182 5.56109 16.0442 5.13506C16.4703 4.70916 16.4703 4.0184 16.0442 3.59229L12.7717 0.319782C12.7465 0.294473 12.7201 0.270618 12.6925 0.247927C12.6857 0.2424 12.6784 0.237673 12.6715 0.232291C12.6504 0.215636 12.6291 0.199273 12.6067 0.184291C12.6002 0.179927 12.5933 0.176363 12.5866 0.172073C12.5632 0.157091 12.5396 0.1424 12.5149 0.129163C12.5101 0.126618 12.5049 0.124509 12.5 0.121963C12.4733 0.108218 12.4463 0.0949817 12.4184 0.083418C12.4149 0.0819635 12.4113 0.0809453 12.4078 0.0795635C12.3784 0.0677089 12.3487 0.0567271 12.3181 0.047418C12.3142 0.0461817 12.3102 0.0455271 12.3063 0.0444362C12.2762 0.0356362 12.2459 0.0275635 12.2149 0.0213816C12.2056 0.0195635 12.1961 0.0187635 12.1868 0.0170907C12.161 0.0125816 12.1353 0.00807254 12.109 0.00552709C12.073 0.00181799 12.0367 -1.89143e-07 12.0002 -1.90739e-07C11.9637 -1.92335e-07 11.9273 0.00181799 11.8912 0.00552708C11.8646 0.00807253 11.8386 0.0127271 11.8127 0.0171634C11.8037 0.0187634 11.7944 0.0195634 11.7855 0.0213816C11.7541 0.0276362 11.7235 0.0356362 11.6932 0.0445089C11.6896 0.0455998 11.6858 0.0462544 11.6823 0.0473453C11.6515 0.0567271 11.6215 0.0677089 11.5918 0.0797089C11.5886 0.081018 11.5852 0.0819634 11.582 0.0833453C11.5538 0.0949816 11.5266 0.108291 11.4998 0.122182C11.4951 0.124582 11.4901 0.126618 11.4854 0.129091C11.4606 0.142473 11.4368 0.157236 11.4131 0.172436C11.4067 0.176509 11.4 0.18 11.3937 0.184218C11.3712 0.199273 11.3498 0.215782 11.3286 0.232363C11.3218 0.237673 11.3146 0.2424 11.3079 0.247854C11.2803 0.270618 11.2538 0.294473 11.2286 0.319709L7.9561 3.59222C7.74301 3.80524 7.63653 4.08444 7.63653 4.36364C7.63653 4.64284 7.74301 4.92204 7.9561 5.13498C8.38213 5.56102 9.07282 5.56102 9.49886 5.13498L10.9093 3.72458Z" fill="black"/>
<path d="M20.9238 15.0763C20.9238 12.0986 19.4466 9.32808 16.9723 7.66517C16.4723 7.32917 15.7945 7.46211 15.4584 7.96211C15.1224 8.46219 15.2552 9.13993 15.7554 9.47608C17.6256 10.7329 18.7421 12.8264 18.7421 15.0763C18.742 18.7938 15.7176 21.8182 12.0001 21.8182C8.28259 21.8182 5.25823 18.7938 5.25823 15.0763C5.25823 12.833 6.36972 10.7429 8.23139 9.48517C8.73066 9.14779 8.86187 8.46982 8.52463 7.97048C8.18732 7.47128 7.50921 7.33993 7.01001 7.67724C4.54688 9.34131 3.07641 12.1073 3.07641 15.0763C3.07641 19.9968 7.07954 24 12.0001 24C16.9207 24 20.9238 19.9968 20.9238 15.0763Z" fill="black"/>
</g>
<defs>
<clipPath id="clip0_66_1683">
<rect width="24" height="24" fill="white" transform="translate(24) rotate(90)"/>
</clipPath>
</defs>
</svg>
