<svg width="20" height="18" viewBox="0 0 20 18" fill="none" xmlns="http://www.w3.org/2000/svg">
<path d="M10 17.6487C9.89883 17.6487 9.7977 17.6225 9.70707 17.5702C9.60864 17.5134 7.26993 16.1555 4.89767 14.1095C3.49166 12.8969 2.36931 11.6942 1.56189 10.5348C0.517053 9.03456 -0.0083756 7.59151 0.000100941 6.2457C0.0100228 4.67968 0.57092 3.20695 1.57959 2.09875C2.60529 0.971879 3.97412 0.351334 5.434 0.351334C7.30497 0.351334 9.01555 1.39938 10 3.05961C10.9845 1.39942 12.6951 0.351334 14.5661 0.351334C15.9453 0.351334 17.2612 0.911254 18.2715 1.92797C19.3803 3.04371 20.0102 4.62019 19.9999 6.25312C19.9914 7.59659 19.4561 9.03745 18.409 10.5356C17.599 11.6944 16.4783 12.8966 15.0778 14.1088C12.7142 16.1547 10.3923 17.5125 10.2946 17.5693C10.2035 17.6222 10.1017 17.6487 10 17.6487Z" fill="black"/>
</svg>
